<?xml version="1.0" encoding="utf-8"?>
<!-- Generator: Adobe Illustrator 19.0.0, SVG Export Plug-In . SVG Version: 6.00 Build 0)  -->
<svg version="1.1" id="Layer_1" xmlns="http://www.w3.org/2000/svg" xmlns:xlink="http://www.w3.org/1999/xlink" x="0px" y="0px"
	 viewBox="0 0 500 500" style="enable-background:new 0 0 500 500;" xml:space="preserve">
<style type="text/css">
	.st0{fill:#B3131B;}
</style>
<g id="XMLID_1_">
	<path id="XMLID_18_" class="st0" d="M220,329.4l-152.5,0.1v-0.4c0-0.2,0.2-1.5,0.5-2.9c0.3-1.4,0.8-3.6,1-4.9c0.3-1.3,0.7-3.6,1-5
		c0.3-1.4,0.8-3.8,1.1-5.3c0.3-1.5,0.8-3.8,1-5.2c0.3-1.4,0.7-3.6,1-5c0.3-1.4,0.8-3.7,1.1-5.3c0.3-1.5,0.8-3.8,1-5.2
		s0.7-3.4,0.9-4.5c0.3-1.2,0.6-2.7,0.7-3.5c0.1-0.8,0.6-3,1-5c0.4-2,0.9-4.2,1-5c0.1-0.8,0.6-3,1-5c0.4-2,0.9-4.2,1-5
		c0.1-0.8,0.6-3,1-5c0.4-2,0.9-4.2,1-4.9c0.1-0.7,0.5-2.5,0.8-4.1c0.3-1.5,0.9-4.4,1.3-6.4c0.4-2,1.1-5.4,1.6-7.7
		c0.4-2.2,1-4.9,1.2-5.9c0.2-1,0.6-2.8,0.8-4.1c0.3-1.2,0.7-3.4,1-4.9c0.3-1.5,0.8-3.9,1.1-5.4c0.3-1.5,0.8-3.8,1-5.1s0.7-3.5,1-4.9
		c0.3-1.4,0.8-3.8,1.1-5.4c0.3-1.6,0.9-4,1.2-5.4c0.3-1.4,0.8-3,1.1-3.7c0.2-0.7,0.9-2.1,1.5-3.2l1.1-2l1-1.3
		c0.5-0.7,1.5-1.8,2.1-2.4c0.6-0.6,1.7-1.6,2.3-2.1c0.7-0.5,1.6-1.3,2.1-1.6c0.5-0.3,1.5-1,2.2-1.4c0.7-0.4,1.7-0.9,2.2-1.2
		c0.5-0.2,1.5-0.7,2.3-1s2.2-0.8,3.2-1.1c1-0.3,2.9-0.8,4.2-1c1.3-0.3,3.4-0.6,4.6-0.8l2.2-0.3l152.6-0.1l152.6-0.1v0.4
		c0,0.2-0.2,1.5-0.5,2.9c-0.3,1.4-0.8,3.8-1.1,5.3c-0.3,1.5-0.8,3.7-1,4.9c-0.2,1.2-0.7,3.4-1,5c-0.3,1.6-0.8,4-1.1,5.4
		c-0.3,1.4-0.7,3.6-1,5c-0.3,1.4-0.7,3.6-1,5c-0.3,1.4-0.7,3.5-1,4.8c-0.3,1.3-0.7,3.6-1,5.1c-0.3,1.5-0.8,3.9-1.1,5.4
		c-0.3,1.4-0.8,3.6-1,4.9c-0.3,1.3-0.7,3.6-1,5.1c-0.3,1.5-0.8,3.9-1.1,5.4c-0.3,1.4-0.7,3.6-1,4.8c-0.2,1.2-0.7,3.5-1,5.1
		c-0.3,1.6-0.8,3.9-1,5.1c-0.2,1.2-0.7,3.4-1,4.8c-0.3,1.4-0.8,3.9-1.1,5.4c-0.3,1.6-0.8,3.8-1,5c-0.2,1.2-0.7,3.4-1,4.9
		s-0.8,3.9-1.1,5.4c-0.3,1.4-0.8,3.7-1,5c-0.3,1.3-0.7,3.6-1,5.1c-0.3,1.5-0.8,3.9-1.1,5.4c-0.3,1.5-0.8,3.7-1,4.9
		c-0.3,1.2-0.7,3.5-1,5c-0.3,1.5-0.8,3.9-1.1,5.3l-0.6,2.6l-0.7,1.8c-0.4,1-0.9,2.3-1.2,2.9c-0.3,0.6-0.9,1.7-1.4,2.4
		c-0.5,0.7-1.1,1.6-1.4,2c-0.3,0.4-1.3,1.4-2.1,2.3l-1.6,1.6l-1.5,1.1c-0.8,0.6-1.7,1.2-2,1.3c-0.3,0.1-1.3,0.6-2.2,1.1
		s-2.3,1.1-3,1.3c-0.7,0.3-2.1,0.7-3,1c-1,0.3-2,0.6-2.3,0.6c-0.3,0.1-1.4,0.3-2.3,0.5c-1,0.2-3,0.5-4.4,0.7l-2.6,0.3L220,329.4
		L220,329.4z M165.7,290h4l0.1-0.3c0.1-0.2,0.1-0.5,0.1-0.8c0-0.3,0.1-1.4,0.3-2.4c0.2-1,0.5-3.4,0.8-5.3s0.7-4.7,1-6.3
		c0.2-1.6,0.6-3.6,0.7-4.5c0.1-0.9,0.3-1.6,0.3-1.6c0.1,0,0.3,0.4,0.6,0.9l0.5,0.9l1,1l1,1l1.3,0.5l1.3,0.5l1.5,0.2l1.5,0.2l1.9-0.1
		l1.9-0.1l2.1-0.5l2.1-0.5l1.1-0.5c0.6-0.3,1.7-0.9,2.4-1.3l1.3-0.8l1.2-1.2c0.7-0.7,1.6-1.7,2.1-2.4c0.5-0.6,0.9-1.2,0.9-1.3
		s0.2-0.5,0.5-0.9c0.3-0.4,0.9-1.6,1.3-2.6c0.4-1,1.1-2.8,1.5-4.1l0.7-2.2l0.4-1.9c0.2-1.1,0.5-2.8,0.6-3.9l0.2-2l-0.1-1.7l-0.1-1.7
		l-0.4-1.7l-0.4-1.7l-0.6-1.2l-0.6-1.2l-1.2-1.3l-1.2-1.3l-1.4-0.7l-1.4-0.7l-1.6-0.4l-1.6-0.4l-1.6-0.1l-1.6-0.1l-1.7,0.2l-1.7,0.2
		l-1.4,0.4l-1.4,0.4l-1.2,0.6c-0.7,0.3-1.7,0.9-2.2,1.2c-0.5,0.3-1.1,0.7-1.2,0.9c-0.1,0.1-0.5,0.4-0.7,0.6l-0.5,0.3l0.3-1.6
		c0.2-0.9,0.3-1.7,0.3-1.9l0-0.2H175h-3.4l-0.6,3.7c-0.3,2.1-0.8,5.2-1.1,7.1c-0.3,1.8-0.8,4.6-1,6.1c-0.3,1.5-0.7,4.2-1,6
		s-0.8,4.6-1.1,6.3c-0.3,1.7-0.8,4.1-1,5.4s-0.7,3.8-1,5.5c-0.3,1.7-0.8,4.5-1.1,6.1c-0.3,1.6-0.8,4.2-1.1,5.7
		c-0.3,1.5-0.6,3-0.6,3.2l-0.1,0.4H165.7L165.7,290z M182.8,268.6l-1.5,0.1l-1-0.2l-1-0.2l-1-0.5l-1-0.5l-0.7-0.7l-0.7-0.7l-0.4-0.9
		c-0.2-0.5-0.5-1.4-0.6-1.9l-0.2-1l0.1-1.6l0.1-1.6l0.5-2.5c0.3-1.4,0.7-3.9,1-5.7c0.3-1.8,0.8-4.4,1.1-5.8l0.5-2.6l1.1-0.9
		c0.6-0.5,1.5-1.1,2-1.4l1-0.6l1.3-0.4l1.3-0.4l1.7-0.1l1.7-0.1l1.4,0.3l1.4,0.3l1,0.4l1,0.4l0.8,0.8l0.8,0.8l0.4,0.9
		c0.2,0.5,0.6,1.4,0.7,2l0.3,1.2l-0.1,3.5l-0.1,3.5l-0.5,2.1c-0.3,1.1-0.8,2.9-1.1,3.9l-0.6,1.8l-0.8,1.5c-0.4,0.8-1.1,1.9-1.5,2.4
		c-0.4,0.5-1,1.2-1.3,1.5c-0.4,0.3-1,0.8-1.3,1.1l-0.7,0.5l-1.6,0.5l-1.6,0.5L182.8,268.6L182.8,268.6z M221.1,273.7l2,0l2-0.2
		c1.1-0.1,2.9-0.3,4.1-0.5c1.1-0.2,3-0.5,4.3-0.8l2.3-0.5l0.1-0.8c0.1-0.5,0.3-1.8,0.6-3l0.5-2.2l-0.1-0.1l-0.1-0.1l-0.7,0.3
		c-0.4,0.2-1.6,0.6-2.6,1l-1.9,0.6l-2,0.4l-2,0.4l-3.2,0l-3.2,0l-1.1-0.4c-0.6-0.2-1.5-0.6-2-0.8l-0.9-0.4l-0.7-0.7l-0.7-0.7l-0.6-1
		l-0.6-1l-0.4-1.2l-0.4-1.2l0-2.3l0-2.3l0.3-2.1l0.3-2.1l2.8-0.1l2.8-0.1l10.3,0.1l10.3,0.1l0.3-1.3c0.2-0.7,0.4-2.2,0.6-3.3l0.3-2
		l0-1.7l0-1.7l-0.3-1.3l-0.3-1.3l-0.5-0.8c-0.3-0.5-0.7-1.1-1-1.5c-0.3-0.4-0.9-0.9-1.2-1.1c-0.4-0.3-1.1-0.7-1.6-1l-0.9-0.5
		l-1.6-0.4l-1.6-0.4l-2-0.2l-2-0.2l-1.8,0.1l-1.8,0.1l-2.2,0.4l-2.2,0.4l-1.4,0.6c-0.8,0.3-1.9,0.9-2.6,1.2c-0.7,0.4-1.6,1-2,1.4
		c-0.5,0.4-1.2,1.1-1.8,1.6c-0.5,0.5-1.3,1.4-1.7,2c-0.4,0.6-1,1.7-1.4,2.4c-0.4,0.7-0.8,1.7-1,2.2c-0.2,0.5-0.6,1.5-0.9,2.3
		c-0.3,0.8-0.7,2.2-0.9,3.2c-0.2,1-0.6,2.7-0.7,3.7l-0.3,1.9l0,2.7l0,2.7l0.3,1.2c0.2,0.7,0.4,1.7,0.7,2.2c0.2,0.6,0.6,1.4,0.8,1.8
		c0.3,0.5,0.8,1.2,1.2,1.6c0.4,0.4,1.2,1.1,1.7,1.5c0.5,0.4,1.4,0.9,2,1.2l1.1,0.5l1.5,0.4c0.8,0.2,2.1,0.4,2.8,0.5
		C218.5,273.6,220,273.7,221.1,273.7L221.1,273.7z M224.6,247.7c-5.1,0-9.3,0-9.3-0.1c0,0,0.2-0.7,0.5-1.4c0.3-0.7,0.7-1.8,1-2.5
		l0.6-1.1l1.2-1.2l1.2-1.2l1.2-0.6c0.7-0.3,1.5-0.7,1.9-0.8c0.4-0.1,1.6-0.2,2.6-0.3l1.8-0.1l1.4,0.2l1.4,0.2l1,0.5l1,0.5l0.6,0.6
		c0.3,0.3,0.7,0.8,0.8,1.1l0.3,0.5l0.2,1.1l0.2,1.1l-0.2,1.8l-0.2,1.8H224.6L224.6,247.7z M279.8,273.7l2,0l2.3-0.3
		c1.3-0.2,3-0.4,3.8-0.6c0.8-0.2,2.1-0.5,2.9-0.7c0.8-0.2,1.5-0.5,1.6-0.5c0.1-0.1,0.3-0.9,0.5-1.9c0.2-1,0.4-2.2,0.5-2.8
		c0.1-0.6,0.2-1.1,0.1-1.2c0,0-0.2,0-0.3,0.1c-0.1,0.1-1,0.5-2,0.8l-1.8,0.7l-2.5,0.5l-2.5,0.5l-2.2-0.1l-2.2-0.1l-1.2-0.4l-1.2-0.4
		l-0.9-0.8l-0.9-0.8l-0.6-1.1l-0.6-1.1l-0.3-1.5l-0.3-1.5l0-2l0-2l0.4-2.4l0.4-2.4l0.4-1.3c0.2-0.7,0.4-1.5,0.5-1.8
		c0.1-0.3,0.4-1.2,0.8-1.9c0.3-0.8,0.9-1.9,1.3-2.6l0.7-1.2l0.9-0.9l0.9-0.9l0.9-0.6l0.9-0.6l1.2-0.4c0.7-0.2,1.8-0.5,2.6-0.6
		l1.4-0.2l2,0.1l2,0.1l2.4,0.5l2.4,0.5l1,0.4c0.5,0.2,1,0.4,1,0.4c0,0,0.2-0.7,0.3-1.5c0.1-0.8,0.4-2.2,0.5-3.1
		c0.2-0.8,0.2-1.6,0.2-1.6c0,0-0.8-0.2-1.6-0.3c-0.8-0.1-3.1-0.3-5.1-0.4l-3.5-0.2l-2.5,0.2l-2.5,0.2l-1.8,0.4l-1.8,0.4l-1.2,0.5
		c-0.7,0.3-1.6,0.7-2.1,1s-1.2,0.7-1.5,0.9s-1.2,1-1.9,1.8l-1.4,1.4l-0.8,1.2c-0.4,0.6-1.2,2-1.7,2.9l-0.9,1.8l-0.7,1.9
		c-0.4,1.1-0.9,2.8-1.1,3.9l-0.5,1.9l-0.2,1.8l-0.2,1.8l0,2.3l0,2.3l0.2,1.3l0.2,1.3l0.6,1.4l0.6,1.4l0.6,1l0.6,1l1,1l1,1l1.1,0.6
		l1.1,0.6l1.4,0.4c0.8,0.2,1.9,0.5,2.5,0.5C277.3,273.6,278.7,273.7,279.8,273.7L279.8,273.7z M310.2,273.6l2.5-0.1l1.6-0.4l1.6-0.4
		l1-0.5c0.6-0.3,1.5-0.8,2-1.2s1.4-1.1,1.9-1.6c0.5-0.5,1.2-1.3,1.6-1.9c0.4-0.5,0.8-0.9,0.8-0.9c0,0-0.1,0.9-0.2,1.9
		c-0.1,1-0.3,2.4-0.3,3l0,1.2h3.4h3.4l0.1-2.6l0.1-2.6l0.5-3.4c0.3-1.9,0.7-4.7,1-6.2c0.3-1.5,0.7-4.1,1-5.7c0.3-1.6,0.8-4.2,1-5.6
		l0.5-2.7l0-2.3l0-2.3l-0.5-1.1l-0.5-1.1l-0.7-0.7l-0.7-0.7l-1.2-0.6l-1.2-0.6l-1.7-0.4l-1.7-0.4l-2.4-0.2l-2.4-0.2l-3.1,0.2
		c-1.7,0.1-4.1,0.3-5.3,0.5l-2.2,0.3l-1.5,0l-1.5,0l-0.2,1.1c-0.1,0.6-0.5,2-0.7,3.1c-0.3,1.1-0.5,2-0.5,2.1c0,0,0.8-0.2,1.8-0.4
		s3-0.7,4.5-0.9l2.8-0.5l2.5-0.1l2.5-0.1l1.6,0.3l1.6,0.3l1.1,0.5l1.1,0.5l0.6,0.9l0.6,0.9l0,1.4l0,1.4l-0.3,1.5l-0.3,1.5l-6.6,0
		l-6.6,0l-2.2,0.6c-1.2,0.3-2.5,0.8-2.9,1c-0.4,0.2-0.8,0.4-0.9,0.4c-0.1,0-0.8,0.4-1.6,0.9l-1.4,0.9l-1.1,1.1
		c-0.6,0.6-1.4,1.5-1.7,2c-0.3,0.5-0.9,1.6-1.2,2.4l-0.6,1.4l-0.3,1.6l-0.3,1.6v1.7v1.7l0.3,1.4l0.3,1.4l0.5,0.9
		c0.3,0.5,0.8,1.2,1.1,1.6l0.6,0.7l1.1,0.7l1.1,0.7l1.3,0.4c0.7,0.2,1.8,0.4,2.4,0.5l1.1,0.2L310.2,273.6L310.2,273.6z M312.5,268.5
		l-1.5,0.1l-1-0.2c-0.5-0.1-1.4-0.4-1.8-0.7l-0.8-0.4l-0.5-0.5c-0.3-0.3-0.6-0.9-0.9-1.3l-0.4-0.8l-0.1-1.8l-0.1-1.8l0.3-1.1
		c0.2-0.6,0.6-1.6,0.9-2.3l0.6-1.2l1.1-1.1l1.1-1.1l1.2-0.6l1.2-0.6l1.5-0.4l1.5-0.4h4.6h4.6l0.3,0.1l0.3,0.1l-0.2,1.4
		c-0.1,0.8-0.5,2.2-0.7,3.2c-0.3,1-0.7,2.4-1,3.1c-0.3,0.8-0.5,1.4-0.5,1.5c0,0.1-0.3,0.6-0.7,1.2l-0.7,1.1l-1.1,1.1
		c-0.6,0.6-1.2,1.1-1.3,1.1c-0.1,0-0.5,0.2-0.8,0.5l-0.7,0.5l-1.5,0.5l-1.5,0.5L312.5,268.5L312.5,268.5z M372.5,273.7l1.8,0
		l1.7-0.3c0.9-0.1,2.1-0.4,2.6-0.5c0.5-0.1,1.4-0.5,2-0.8l1.1-0.6l1-0.8l1-0.8l1-1.3c0.6-0.7,1.1-1.5,1.1-1.6l0.1-0.3l-0.1,0.9
		c-0.1,0.5-0.2,1.3-0.3,1.8c-0.1,0.5-0.2,1.5-0.3,2.2l-0.1,1.2h3.6h3.6v-1.2v-1.2l0.6-4.7c0.3-2.6,0.8-6,1-7.7
		c0.2-1.6,0.6-3.9,0.8-5.2s0.6-3.4,0.9-4.9s0.7-4,1-5.7c0.3-1.7,0.8-4.3,1.1-5.9c0.3-1.6,0.7-4,1-5.4c0.3-1.4,0.7-3.9,1-5.5
		c0.3-1.6,0.8-3.9,1-5.1c0.2-1.2,0.4-2.2,0.4-2.3v-0.1h-3.9h-3.9l-0.1,1.2c-0.1,0.6-0.4,2.7-0.7,4.7c-0.3,1.9-0.8,5-1.1,6.8
		c-0.3,1.8-0.6,3.6-0.6,3.9l-0.1,0.6l-0.3-0.1c-0.2-0.1-1.1-0.3-2.1-0.6l-1.8-0.4l-2.4-0.2l-2.4-0.2l-2,0.2l-2,0.2l-1.8,0.5
		l-1.8,0.5l-1.8,0.9l-1.8,0.9l-1.3,1l-1.3,1l-1.1,1.2c-0.6,0.7-1.5,1.7-2,2.4l-0.9,1.2l-1,2.1c-0.6,1.1-1.2,2.7-1.5,3.4
		c-0.3,0.7-0.7,2.3-1.1,3.5l-0.6,2.2l-0.3,2.9l-0.3,2.9l0.2,2.3l0.2,2.3l0.2,0.8c0.1,0.5,0.4,1.3,0.6,1.8l0.4,1l0.7,1l0.7,1l0.8,0.7
		l0.8,0.7l1.1,0.5c0.6,0.3,1.6,0.7,2.3,0.9c0.6,0.2,1.7,0.4,2.3,0.5C370.3,273.6,371.6,273.7,372.5,273.7L372.5,273.7z M375.7,268.5
		l-1.4,0.1l-0.9-0.2c-0.5-0.1-1.3-0.3-1.8-0.6l-0.9-0.4l-0.8-0.6l-0.8-0.6l-0.6-1.1L368,264l-0.3-1.2l-0.3-1.2l0-2.4l0-2.4l0.3-2.1
		l0.3-2.1l0.5-1.5c0.3-0.8,0.5-1.6,0.5-1.7c0-0.1,0.3-0.8,0.6-1.5c0.3-0.7,0.8-1.7,1.1-2.4c0.3-0.6,0.9-1.6,1.3-2.1
		c0.4-0.6,1.1-1.4,1.6-1.8c0.5-0.5,1.2-1.1,1.7-1.4l0.8-0.5l1.5-0.5l1.5-0.5l3,0h3l1.8,0.5c1,0.3,2,0.6,2.3,0.7l0.5,0.2l-0.1,0.5
		c-0.1,0.3-0.3,1.5-0.5,2.7c-0.2,1.2-0.6,3.5-0.9,5.2c-0.3,1.6-0.8,4.1-1,5.4c-0.3,1.4-0.6,3.1-0.8,3.9c-0.2,0.8-0.5,1.8-0.6,2.3
		c-0.1,0.5-0.5,1.4-0.8,2c-0.3,0.6-0.8,1.4-1.1,1.9c-0.3,0.5-0.9,1.1-1.2,1.4c-0.3,0.3-1.1,0.9-1.6,1.3l-1,0.7l-1.5,0.5l-1.5,0.5
		L375.7,268.5L375.7,268.5z M104.1,272.8h4.5l0.3-2c0.2-1.1,0.5-3.2,0.8-4.7c0.2-1.5,0.7-4.2,1-6.1c0.3-1.9,0.8-4.7,1-6.2
		c0.3-1.5,0.7-3.9,0.9-5.2c0.2-1.4,0.5-2.5,0.5-2.6l0.1-0.1h12.1h12.1l0.1,0.1l0.1,0.1l-0.2,1.1c-0.1,0.6-0.5,2.4-0.8,4
		c-0.3,1.6-0.8,4.4-1.1,6.1c-0.3,1.7-0.8,4.2-1,5.4c-0.2,1.3-0.7,3.9-1.1,5.9c-0.4,2-0.7,3.7-0.7,3.8l0,0.2h4.5h4.5l0.2-1.2
		c0.1-0.6,0.3-1.8,0.4-2.5c0.1-0.8,0.4-2.4,0.6-3.6s0.6-3.6,0.9-5.4c0.3-1.7,0.8-4.7,1.1-6.6c0.3-1.9,0.8-4.6,1-6.1
		c0.3-1.5,0.7-4,1-5.5c0.3-1.6,0.8-4.2,1.1-5.9c0.3-1.7,0.8-4.2,1-5.6s0.7-4,1-5.7c0.3-1.7,0.7-3.7,0.9-4.5l0.3-1.3h-4.6h-4.6
		l-0.1,0.9c-0.1,0.5-0.3,1.8-0.5,3c-0.2,1.2-0.6,3.2-0.8,4.6c-0.2,1.4-0.7,4-1,5.8c-0.3,1.8-0.7,4.2-0.9,5.4l-0.3,2.1l-6.7,0.1
		l-6.7,0.1l-5.6-0.1c-3.1-0.1-5.6-0.1-5.6-0.2c0,0,0.1-0.7,0.2-1.6c0.1-0.9,0.4-2.4,0.6-3.3s0.6-2.9,0.8-4.2
		c0.3-1.4,0.6-3.1,0.6-3.8c0.1-0.7,0.3-1.9,0.5-2.6c0.2-0.7,0.4-2.3,0.7-3.4c0.2-1.2,0.4-2.2,0.5-2.4l0.1-0.3h-4.5h-4.5l-0.3,1.6
		c-0.2,0.9-0.4,2.2-0.5,2.8c-0.1,0.7-0.4,2.8-0.7,4.7c-0.3,1.9-0.8,4.8-1,6.4s-0.7,4.4-1,6.4c-0.3,1.9-0.8,4.9-1.1,6.6
		c-0.3,1.7-0.8,4.2-1,5.4c-0.2,1.3-0.7,3.7-1,5.4c-0.3,1.7-0.8,4-1,5.3c-0.2,1.2-0.5,2.6-0.6,3.1c-0.1,0.5-0.4,2-0.6,3.3
		s-0.5,2.5-0.5,2.6v0.3H104.1L104.1,272.8z M153.7,272.8h4l0.1-0.3c0.1-0.2,0.1-0.6,0.1-0.9c0-0.4,0.2-2.2,0.6-4.1
		c0.3-1.9,0.8-5,1.1-6.9c0.3-1.9,0.8-4.6,1-6.1c0.3-1.5,0.7-3.9,1-5.4c0.3-1.5,0.7-3.9,1-5.3c0.3-1.4,0.8-4,1.1-5.8
		c0.4-1.8,0.7-3.4,0.8-3.5l0.1-0.2l-4,0l-4,0l-0.3,2.4c-0.2,1.3-0.6,3.9-0.9,5.8c-0.3,1.9-0.8,4.7-1,6.4c-0.3,1.6-0.7,4.2-1,5.8
		c-0.3,1.6-0.7,4-1,5.4c-0.3,1.4-0.7,3.8-1,5.4c-0.3,1.6-0.7,3.6-0.9,4.6c-0.2,1-0.4,1.9-0.5,2.2l-0.1,0.4H153.7L153.7,272.8z
		 M246.6,272.8h3.9l0.1-1.7c0.1-0.9,0.3-2.8,0.5-4.1c0.2-1.3,0.6-4,0.9-5.9c0.3-1.9,0.9-5.1,1.3-7.1c0.4-2,0.8-4,1-4.4
		s0.3-0.9,0.3-1c0-0.1,0.3-0.9,0.7-1.7c0.4-0.8,1-2,1.5-2.7l0.8-1.2l1.1-1l1.1-1l1.4-0.7l1.4-0.7l2.1,0l2.1,0l1,0.3
		c0.6,0.2,1.1,0.3,1.2,0.3c0.1,0,0.1-0.2,0.1-0.4c0-0.2,0.2-1.5,0.5-2.7c0.3-1.2,0.5-2.3,0.5-2.4c0-0.1-0.6-0.3-1.3-0.5
		c-0.7-0.2-1.8-0.5-2.3-0.5l-0.9-0.1l-1.2,0.2c-0.7,0.1-1.6,0.4-2.2,0.6c-0.5,0.2-1.4,0.6-2,1c-0.5,0.4-1.4,1-1.9,1.5
		s-1.3,1.5-1.8,2.2c-0.5,0.7-1.1,1.5-1.2,1.7L255,241l0.2-0.7c0.1-0.4,0.3-1.7,0.5-3c0.2-1.2,0.4-2.4,0.5-2.5l0.1-0.3h-3.5h-3.5v0.4
		c0,0.2-0.2,1.7-0.5,3.3c-0.3,1.6-0.7,4.2-0.9,5.8c-0.3,1.6-0.7,4.4-1,6.3c-0.3,1.8-0.8,4.4-1,5.8c-0.3,1.4-0.7,3.8-1,5.4
		c-0.3,1.6-0.8,4.1-1.1,5.7c-0.3,1.6-0.7,3.4-0.8,4.1c-0.1,0.7-0.3,1.3-0.3,1.4v0.2L246.6,272.8L246.6,272.8z M340.1,272.8h4v-1.2
		v-1.2l0.5-3.1c0.3-1.7,0.7-4.3,0.9-5.9c0.3-1.6,0.6-3.6,0.7-4.4c0.1-0.9,0.5-2.7,0.8-4.2c0.3-1.4,0.7-3,0.8-3.4s0.3-0.9,0.3-1.1
		c0-0.1,0.3-1,0.8-1.8l0.8-1.6l1-1.3l1-1.3l1.1-0.8c0.6-0.5,1.6-1.1,2.2-1.3l1.1-0.5l2.3,0l2.3,0l0.9,0.3l0.9,0.3l0.2-0.1l0.2-0.1
		l0-0.6c0-0.3,0.2-1.5,0.4-2.7l0.4-2.1l-0.5-0.2c-0.3-0.1-0.9-0.3-1.4-0.5l-0.9-0.3l-1.7,0l-1.7,0l-1.4,0.5l-1.4,0.5l-1,0.6l-1,0.6
		l-1.3,1.4l-1.3,1.4l-0.7,1.1c-0.4,0.6-0.7,1-0.8,1c0,0,0.2-1.3,0.5-2.7c0.3-1.5,0.5-2.9,0.5-3.1l0-0.4h-3.4h-3.4v0.1
		c0,0.1-0.2,1.2-0.4,2.6c-0.2,1.4-0.6,4-0.9,5.9c-0.3,1.9-0.8,4.9-1.1,6.7c-0.3,1.8-0.8,4.4-1,5.8s-0.7,3.8-1,5.4
		c-0.3,1.6-0.8,4.1-1.1,5.6c-0.3,1.5-0.7,3.5-0.9,4.5l-0.3,1.7L340.1,272.8L340.1,272.8z M161.5,227.8l1.1,0l0.9-0.3l0.9-0.3
		l0.8-0.8l0.8-0.8l0.4-1.1l0.4-1.1l0-1.6l0-1.6l-0.4-0.6l-0.4-0.6l-0.6-0.4l-0.6-0.4h-1.4h-1.4l-0.9,0.4l-0.9,0.4l-0.5,0.6l-0.5,0.6
		l-0.4,1l-0.4,1l-0.1,1.6l-0.1,1.6l0.4,0.8l0.4,0.8l0.8,0.4l0.8,0.4L161.5,227.8L161.5,227.8z"/>
</g>
</svg>
