<?xml version="1.0" encoding="utf-8"?>
<!-- Generator: Adobe Illustrator 19.0.0, SVG Export Plug-In . SVG Version: 6.00 Build 0)  -->
<svg version="1.1" id="Layer_1" xmlns="http://www.w3.org/2000/svg" xmlns:xlink="http://www.w3.org/1999/xlink" x="0px" y="0px"
	 viewBox="0 0 500 500" style="enable-background:new 0 0 500 500;" xml:space="preserve">
<style type="text/css">
	.st0{fill:url(#XMLID_37_);}
	.st1{fill:#FFFFFF;}
</style>
<g id="XMLID_1_">
	
		<radialGradient id="XMLID_37_" cx="92.6502" cy="410.852" r="458.161" gradientTransform="matrix(1 0 0 -1 0 502)" gradientUnits="userSpaceOnUse">
		<stop  offset="0" style="stop-color:#9DD5F6"/>
		<stop  offset="7.110000e-002" style="stop-color:#98D3F5"/>
		<stop  offset="0.1575" style="stop-color:#89CEF3"/>
		<stop  offset="0.2516" style="stop-color:#70C6EF"/>
		<stop  offset="0.3514" style="stop-color:#4EBBEA"/>
		<stop  offset="0.4546" style="stop-color:#23ADE3"/>
		<stop  offset="0.5" style="stop-color:#0DA6E0"/>
		<stop  offset="1" style="stop-color:#2E77BC"/>
	</radialGradient>
	<path id="XMLID_20_" class="st0" d="M494.7,5.6H6.5v490h488.2V333.9c1.9-2.8,2.9-6.4,2.9-10.8c0-5-1-8.1-2.9-10.7"/>
	<path class="st1" d="M50.5,217.6l-9.4-22.9l-9.3,22.9 M257.4,208.5c-1.9,1.1-4.1,1.2-6.8,1.2H234v-12.8h16.9c2.4,0,4.9,0.1,6.5,1
		c1.8,0.8,2.9,2.6,2.9,5.1C260.3,205.5,259.2,207.6,257.4,208.5z M376.4,217.6l-9.5-22.9l-9.4,22.9H376.4z M154.7,242.4h-14.1
		l-0.1-45l-19.9,45h-12l-20-45v45H60.7l-5.3-12.8H26.9l-5.3,12.8H6.7L31.2,185h20.4L75,239.3V185h22.4l18,38.9l16.5-38.9h22.8
		L154.7,242.4L154.7,242.4z M210.7,242.4h-45.8V185h45.8v12h-32.1v10.3H210V219h-31.3v11.5h32.1V242.4z M275.4,200.4
		c0,9.2-6.1,13.9-9.7,15.3c3,1.1,5.6,3.2,6.8,4.8c1.9,2.9,2.3,5.4,2.3,10.5v11.3h-13.8l-0.1-7.2c0-3.5,0.3-8.4-2.2-11.2
		c-2-2-5.1-2.5-10-2.5H234v20.9h-13.7V185h31.6c7,0,12.2,0.2,16.6,2.7C272.8,190.3,275.4,194,275.4,200.4z M297.3,242.4h-14V185h14
		V242.4z M459.8,242.4h-19.4l-26-43.1v43.1h-27.9l-5.3-12.8h-28.5l-5.2,12.8h-16.1c-6.7,0-15.1-1.5-19.9-6.3
		c-4.8-4.9-7.3-11.5-7.3-21.9c0-8.5,1.5-16.3,7.4-22.4c4.4-4.6,11.4-6.7,20.8-6.7h13.3v12.3h-13c-5,0-7.8,0.7-10.6,3.4
		c-2.3,2.4-3.9,7-3.9,13c0,6.2,1.2,10.6,3.8,13.5c2.1,2.3,6,3,9.6,3h6.2l19.3-45.1h20.6l23.2,54.3V185h20.9l24.1,40v-40h14.1
		L459.8,242.4L459.8,242.4z M6.5,253.6h23.4l5.3-12.8h11.8l5.3,12.8h46.1v-9.7l4.1,9.8h23.9l4.1-9.9v9.9h114.6l-0.1-20.9h2.2
		c1.6,0.1,2,0.2,2,2.8v18.2h59.3v-4.9c4.8,2.6,12.2,4.9,22,4.9h24.9l5.3-12.8h11.8l5.2,12.8h48.1v-12.1l7.3,12.1H472v-80.1h-38.1
		v9.5l-5.3-9.5h-39.1v9.5l-4.9-9.5h-52.8c-8.8,0-16.6,1.2-22.9,4.7v-4.7h-36.5v4.7c-4-3.5-9.4-4.7-15.5-4.7H123.6l-8.9,20.7
		l-9.2-20.7h-42v9.5l-4.6-9.5H23.1L6.5,211.6L6.5,253.6L6.5,253.6z"/>
	<path class="st1" d="M494.7,296h-25c-2.5,0-4.2,0.1-5.6,1c-1.4,0.9-2,2.3-2,4.1c0,2.2,1.2,3.6,3,4.3c1.4,0.5,3,0.7,5.3,0.7l7.4,0.2
		c7.5,0.2,12.5,1.5,15.6,4.6c0.6,0.4,0.9,0.9,1.3,1.4 M494.7,333.9c-3.3,4.9-9.8,7.3-18.6,7.3h-26.5v-12.3H476
		c2.6,0,4.5-0.3,5.6-1.4c1-0.9,1.6-2.2,1.6-3.7c0-1.7-0.7-3-1.7-3.8c-1-0.9-2.4-1.3-4.8-1.3c-12.9-0.4-29,0.4-29-17.8
		c0-8.3,5.3-17.1,19.7-17.1h27.3v-11.4h-25.4c-7.7,0-13.2,1.8-17.2,4.7v-4.7h-37.6c-6,0-13.1,1.5-16.4,4.7v-4.7h-67.1v4.7
		c-5.3-3.9-14.3-4.7-18.5-4.7h-44.2v4.7c-4.2-4.1-13.6-4.7-19.3-4.7h-49.5l-11.3,12.3l-10.6-12.3h-74v80.1h72.6l11.7-12.5l11,12.5
		l44.7,0v-18.8h4.4c5.9,0.1,12.9-0.1,19.1-2.8v21.6H304v-20.9h1.8c2.3,0,2.5,0.1,2.5,2.4v18.5h112.1c7.1,0,14.6-1.8,18.7-5.1v5.1
		h35.6c7.4,0,14.6-1,20.1-3.7V333.9L494.7,333.9z M440,310.9c2.7,2.8,4.1,6.3,4.1,12.2c0,12.4-7.7,18.1-21.6,18.1h-26.7v-12.3h26.6
		c2.6,0,4.4-0.3,5.6-1.4c0.9-0.9,1.6-2.2,1.6-3.7c0-1.7-0.7-3-1.7-3.8c-1-0.9-2.5-1.3-4.9-1.3c-12.8-0.4-28.9,0.4-28.9-17.8
		c0-8.3,5.2-17.1,19.6-17.1h27.5V296h-25.2c-2.5,0-4.1,0.1-5.5,1c-1.5,0.9-2.1,2.3-2.1,4.1c0,2.2,1.3,3.6,3,4.3
		c1.4,0.5,3,0.7,5.3,0.7l7.4,0.2C431.8,306.5,436.9,307.8,440,310.9z M316.2,307.4c-1.8,1.1-4.1,1.2-6.8,1.2h-16.7v-12.9h16.9
		c2.4,0,4.9,0.1,6.5,1c1.8,0.9,2.8,2.7,2.8,5.2C319,304.3,317.9,306.3,316.2,307.4z M324.5,314.5c3.1,1.1,5.6,3.1,6.7,4.8
		c1.9,2.8,2.2,5.4,2.3,10.5v11.4h-13.8V334c0-3.5,0.3-8.6-2.2-11.2c-2-2.1-5.1-2.5-10.1-2.5h-14.7v21h-13.8v-57.4h31.7
		c6.9,0,12,0.3,16.5,2.7c4.3,2.6,7.1,6.2,7.1,12.8C334.2,308.4,328.1,313.1,324.5,314.5z M341.8,283.8h45.8v11.9h-32.1v10.4h31.4
		v11.7h-31.4v11.4l32.1,0.1v11.9h-45.8V283.8z M249.2,310.3h-17.7v-14.6h17.9c5,0,8.4,2,8.4,7C257.8,307.7,254.5,310.3,249.2,310.3z
		 M217.8,336l-21.1-23.4l21.1-22.6V336z M163.4,329.2h-33.7v-11.4h30.1v-11.7h-30.1v-10.4h34.4l15,16.7L163.4,329.2z M272.5,302.7
		c0,16-11.9,19.2-23.9,19.2h-17.1v19.3h-26.7l-16.9-19l-17.6,19H116v-57.4h55.2l16.9,18.8l17.5-18.8h43.8
		C260.3,283.8,272.5,286.8,272.5,302.7z"/>
</g>
</svg>
