<svg xmlns="http://www.w3.org/2000/svg" xmlns:xlink="http://www.w3.org/1999/xlink" width="30" height="22.241" viewBox="0 0 30 22.241"><defs><style>.a{fill:none;}.b{clip-path:url(#a);}.c{fill:#a0d2f0;}.d{fill:#87bee1;}.e{fill:#8f96ac;}.f{fill:#707487;}.g{fill:#5b5d6e;}.h{fill:#b4e1fa;}.i{fill:#afb9d2;}.j{fill:#eff2fa;}.k{fill:#ffc36e;}.l{fill:#ffd782;}</style><clipPath id="a"><rect class="a" width="30" height="22.241"/></clipPath></defs><g class="b"><path class="c" d="M124.62,146.9h20.69a1.034,1.034,0,0,0,1.034-1.034V133.448a1.034,1.034,0,0,0-1.034-1.034H124.62a1.034,1.034,0,0,0-1.034,1.034v12.414a1.034,1.034,0,0,0,1.034,1.034" transform="translate(-116.345 -124.655)"/><path class="d" d="M124.62,132.414a1.034,1.034,0,0,0-1.034,1.034v6.724h14.483a2.069,2.069,0,0,0,2.069-2.069v-5.69H124.62Z" transform="translate(-116.345 -124.655)"/><path class="e" d="M329.723,265.861h-2.586a.517.517,0,1,1,0-1.034h2.586a.517.517,0,1,1,0,1.034" transform="translate(-307.482 -249.31)"/><path class="e" d="M170.827,265.861h-2.586a.517.517,0,1,1,0-1.034h2.586a.517.517,0,1,1,0,1.034" transform="translate(-157.896 -249.31)"/><path class="e" d="M409.171,265.861h-2.586a.517.517,0,1,1,0-1.034h2.586a.517.517,0,1,1,0,1.034" transform="translate(-382.275 -249.31)"/><path class="e" d="M250.275,265.861h-2.586a.517.517,0,1,1,0-1.034h2.586a.517.517,0,1,1,0,1.034" transform="translate(-232.689 -249.31)"/><path class="e" d="M258.586,336.482h-2.069a.517.517,0,1,1,0-1.034h2.069a.517.517,0,1,1,0,1.034" transform="translate(-241 -315.793)"/><path class="e" d="M257.034,301.172h-.517a.517.517,0,1,1,0-1.035h.517a.517.517,0,0,1,0,1.035" transform="translate(-240.999 -282.551)"/><path class="e" d="M301.172,301.172h-.517a.517.517,0,0,1,0-1.035h.517a.517.517,0,0,1,0,1.035" transform="translate(-282.551 -282.551)"/><path class="e" d="M332.31,336.482h-5.172a.517.517,0,1,1,0-1.034h5.172a.517.517,0,1,1,0,1.034" transform="translate(-307.482 -315.793)"/><rect class="f" width="22.759" height="2.069" transform="translate(7.241 9.31)"/><rect class="g" width="16.552" height="2.069" transform="translate(7.241 9.31)"/><path class="h" d="M21.724,14.483H1.034A1.034,1.034,0,0,1,0,13.448V1.034A1.034,1.034,0,0,1,1.034,0h20.69a1.034,1.034,0,0,1,1.034,1.034V13.448a1.034,1.034,0,0,1-1.034,1.034"/><path class="i" d="M124.1,133.448h2.586a.517.517,0,1,0,0-1.035H124.1a.517.517,0,1,0,0,1.035" transform="translate(-116.345 -124.654)"/><path class="i" d="M283,133.448h2.586a.517.517,0,0,0,0-1.035H283a.517.517,0,0,0,0,1.035" transform="translate(-265.931 -124.654)"/><path class="i" d="M44.655,133.448h2.586a.517.517,0,1,0,0-1.035H44.655a.517.517,0,1,0,0,1.035" transform="translate(-41.552 -124.654)"/><path class="i" d="M203.551,133.448h2.586a.517.517,0,1,0,0-1.035h-2.586a.517.517,0,1,0,0,1.035" transform="translate(-191.137 -124.654)"/><path class="j" d="M150.586,27.517h7.241a.517.517,0,0,0,0-1.035h-7.241a.517.517,0,1,0,0,1.035" transform="translate(-141.276 -24.93)"/><path class="j" d="M203.551,62.827h4.138a.517.517,0,0,0,0-1.035h-4.138a.517.517,0,1,0,0,1.035" transform="translate(-191.137 -58.171)"/><path class="i" d="M203.551,204.07h2.069a.517.517,0,1,0,0-1.035h-2.069a.517.517,0,1,0,0,1.035" transform="translate(-191.137 -191.138)"/><path class="i" d="M230.034,168.758h.517a.517.517,0,1,0,0-1.035h-.517a.517.517,0,1,0,0,1.035" transform="translate(-216.069 -157.895)"/><path class="i" d="M185.9,168.758h.517a.517.517,0,0,0,0-1.035H185.9a.517.517,0,1,0,0,1.035" transform="translate(-174.517 -157.895)"/><path class="i" d="M79.965,204.07h5.172a.517.517,0,1,0,0-1.035H79.965a.517.517,0,1,0,0,1.035" transform="translate(-74.793 -191.138)"/><path class="k" d="M47.241,73.206H44.655a.517.517,0,0,1-.517-.517V71.137a.517.517,0,0,1,.517-.517h2.586a.517.517,0,0,1,.517.517v1.552a.517.517,0,0,1-.517.517" transform="translate(-41.552 -66.482)"/><path class="l" d="M64.379,71.655v-.517a.517.517,0,0,0-.517-.517H61.793v2.586h1.552V72.172a.517.517,0,0,1,.517-.517h.517Z" transform="translate(-58.172 -66.482)"/></g></svg>