<?xml version="1.0" encoding="utf-8"?>
<!-- Generator: Adobe Illustrator 19.0.0, SVG Export Plug-In . SVG Version: 6.00 Build 0)  -->
<svg version="1.1" id="Layer_1" xmlns="http://www.w3.org/2000/svg" xmlns:xlink="http://www.w3.org/1999/xlink" x="0px" y="0px"
	 viewBox="0 0 500 500" style="enable-background:new 0 0 500 500;" xml:space="preserve">
<style type="text/css">
	.st0{fill:#006095;}
	.st1{fill:#FFFFFF;}
	.st2{fill:#1A1918;}
</style>
<g id="XMLID_1_">
	<path id="XMLID_2_" class="st0" d="M137.9,297.5c26,0.1,49.8-21.2,49.8-47.1c0-28.3-23.8-47.9-49.8-47.9h-22.4
		c-26.3,0-48,19.6-48,47.9c0,25.9,21.7,47.2,48,47.1H137.9"/>
	<path id="XMLID_3_" class="st1" d="M125.5,275.7v-51.5c10.4,4,17.7,14,17.7,25.7C143.2,261.7,135.9,271.7,125.5,275.7 M88,249.9
		c0-11.7,7.4-21.8,17.7-25.7v51.5C95.4,271.7,88,261.7,88,249.9 M115.6,206.4c-24.1,0-43.6,19.5-43.6,43.5c0,24,19.5,43.5,43.6,43.5
		c24.1,0,43.6-19.5,43.6-43.5C159.2,225.9,139.7,206.4,115.6,206.4"/>
	<path id="XMLID_7_" class="st2" d="M203,222.9c0-4.5-2.4-4.2-4.6-4.2v-1.3c2,0.1,4,0.1,5.9,0.1c2.1,0,5-0.1,8.7-0.1
		c13,0,20,8.6,20,17.5c0,4.9-2.9,17.4-20.6,17.4c-2.6,0-4.9-0.1-7.3-0.1c-2.3,0-4.5,0-6.7,0.1V251c3-0.3,4.5-0.4,4.6-3.8V222.9z
		 M207.9,246.4c0,3.8,2.8,4.3,5.2,4.3c10.8,0,14.4-8.1,14.4-15.6c0-9.3-6-16.1-15.7-16.1c-2.1,0-3,0.1-3.9,0.2V246.4z M234.7,251h1
		c1.4,0,2.4,0,2.4-1.7v-13.5c0-2.2-0.8-2.5-2.6-3.5v-0.8c2.4-0.7,5.2-1.6,5.4-1.8c0.4-0.2,0.7-0.3,0.9-0.3c0.2,0,0.4,0.3,0.4,0.7
		v19.2c0,1.7,1.1,1.7,2.5,1.7h0.8v1.3c-1.7,0-3.5-0.1-5.3-0.1c-1.8,0-3.6,0-5.5,0.1V251z M240.1,221.7c-1.3,0-2.5-1.2-2.5-2.5
		c0-1.3,1.2-2.4,2.5-2.4c1.3,0,2.5,1.1,2.5,2.4C242.5,220.6,241.4,221.7,240.1,221.7z M250.2,236.1c0-1.8-0.6-2.3-2.9-3.3v-0.9
		c2.2-0.7,4.2-1.4,6.6-2.4c0.1,0,0.3,0.1,0.3,0.5v3.3c2.9-2,5.3-3.7,8.7-3.7c4.3,0,5.8,3.1,5.8,7v12.9c0,1.7,1.1,1.7,2.5,1.7h0.9
		v1.3c-1.8,0-3.5-0.1-5.3-0.1c-1.8,0-3.6,0-5.4,0.1V251h0.9c1.4,0,2.4,0,2.4-1.7v-12.9c0-2.9-1.7-4.2-4.6-4.2
		c-1.6,0-4.2,1.3-5.8,2.4v14.8c0,1.7,1.1,1.7,2.5,1.7h0.9v1.3c-1.8,0-3.5-0.1-5.3-0.1c-1.8,0-3.6,0-5.4,0.1V251h0.9
		c1.4,0,2.4,0,2.4-1.7V236.1z M275.9,238.5c-0.1,0.5-0.1,1.2,0,2.9c0.3,4.7,3.4,8.6,7.4,8.6c2.8,0,4.9-1.5,6.8-3.3l0.7,0.7
		c-2.3,3-5.2,5.6-9.3,5.6c-8,0-9.6-7.7-9.6-10.9c0-9.8,6.6-12.7,10.1-12.7c4.1,0,8.4,2.5,8.5,7.8c0,0.3,0,0.6,0,0.9l-0.5,0.3H275.9z
		 M284.7,236.9c1.3,0,1.4-0.7,1.4-1.3c0-2.5-1.6-4.6-4.4-4.6c-3.1,0-5.2,2.2-5.8,5.8H284.7z M291.6,251h1.4c1.4,0,2.4,0,2.4-1.7v-14
		c0-1.5-1.9-1.9-2.6-2.2v-0.7c3.7-1.6,5.7-2.9,6.1-2.9c0.3,0,0.4,0.1,0.4,0.7v4.5h0.1c1.2-1.9,3.4-5.1,6.4-5.1
		c1.3,0,2.9,0.8,2.9,2.6c0,1.4-0.9,2.6-2.4,2.6c-1.6,0-1.6-1.2-3.3-1.2c-0.9,0-3.7,1.2-3.7,4.2v11.7c0,1.7,1,1.7,2.4,1.7h2.8v1.3
		c-2.8-0.1-4.9-0.1-7-0.1c-2.1,0-4.2,0-6,0.1V251z M310.9,245.3c0.7,3.3,2.7,6.1,6.3,6.1c2.9,0,4.1-1.8,4.1-3.5
		c0-5.9-10.9-4-10.9-12c0-2.8,2.3-6.4,7.8-6.4c1.6,0,3.8,0.5,5.7,1.5l0.4,5.1H323c-0.5-3.1-2.3-4.9-5.5-4.9c-2,0-3.9,1.1-3.9,3.3
		c0,5.9,11.6,4,11.6,11.9c0,3.3-2.7,6.8-8.6,6.8c-2,0-4.4-0.7-6.1-1.7l-0.6-5.7L310.9,245.3z M370.5,226.4h-1.2
		c-1-5.8-5.1-8.2-10.7-8.2c-5.8,0-14.1,3.8-14.1,15.8c0,10.1,7.2,17.3,14.9,17.3c5,0,9.1-3.4,10.1-8.6l1.1,0.3l-1.1,7.3
		c-2.1,1.3-7.8,2.7-11.1,2.7c-11.7,0-19.1-7.5-19.1-18.8c0-10.2,9.2-17.6,19-17.6c4.1,0,8,1.3,11.8,2.7L370.5,226.4z M372.3,251h0.9
		c1.4,0,2.4,0,2.4-1.7v-27.8c0-3.3-0.8-3.4-2.7-3.9v-0.8c2-0.6,4.1-1.5,5.2-2.2c0.5-0.3,1-0.6,1.1-0.6c0.3,0,0.4,0.3,0.4,0.7v34.5
		c0,1.7,1.1,1.7,2.5,1.7h0.8v1.3c-1.7,0-3.5-0.1-5.3-0.1c-1.8,0-3.6,0-5.5,0.1V251z M404.4,249.5c0,0.9,0.5,1,1.4,1c0.6,0,1.4,0,2,0
		v1.1c-2.2,0.2-6.3,1.2-7.2,1.5l-0.3-0.2v-4c-3,2.4-5.3,4.2-8.9,4.2c-2.7,0-5.5-1.7-5.5-5.9v-12.8c0-1.3-0.2-2.6-3-2.8v-1
		c1.8,0,5.8-0.3,6.5-0.3c0.6,0,0.6,0.3,0.6,1.4v12.9c0,1.5,0,5.8,4.4,5.8c1.7,0,4-1.3,6.1-3v-13.5c0-1-2.4-1.5-4.2-2v-0.9
		c4.5-0.3,7.3-0.7,7.8-0.7c0.4,0,0.4,0.3,0.4,0.9V249.5z M414.4,233c2-1.7,4.7-3.6,7.5-3.6c5.8,0,9.3,5.1,9.3,10.5
		c0,6.5-4.8,13.1-12,13.1c-3.7,0-5.7-1.2-7-1.7l-1.5,1.1l-1-0.5c0.4-2.9,0.7-5.8,0.7-8.9v-21.5c0-3.3-0.8-3.4-2.7-3.9v-0.8
		c2-0.6,4.1-1.5,5.2-2.2c0.6-0.3,0.9-0.6,1.1-0.6c0.3,0,0.4,0.3,0.4,0.7V233z M414.4,246.6c0,1.9,1.8,5.1,5.2,5.1
		c5.4,0,7.6-5.3,7.6-9.7c0-5.4-4.1-9.9-8-9.9c-1.9,0-3.4,1.2-4.8,2.4V246.6z M198.3,281.3h0.4c1,0,2-0.1,2-1.5v-14.2
		c0-1.4-1-1.6-2-1.6h-0.4v-0.8c1.1,0,2.7,0.1,4,0.1c1.4,0,3-0.1,4.3-0.1v0.8h-0.4c-1,0-2,0.1-2,1.6v14.2c0,1.4,1,1.5,2,1.5h0.4v0.8
		c-1.3,0-2.9-0.1-4.3-0.1c-1.3,0-2.9,0.1-4,0.1V281.3z M225.4,276.8L225.4,276.8l0.1-10.3c0-2.2-1.6-2.6-2.4-2.6h-0.6v-0.8
		c1.3,0,2.5,0.1,3.8,0.1c1.1,0,2.2-0.1,3.4-0.1v0.8h-0.4c-1.1,0-2.4,0.2-2.4,3.5v12.4c0,1,0,1.9,0.2,2.7h-1l-14-15.6v11.2
		c0,2.4,0.5,3.2,2.6,3.2h0.5v0.8c-1.2,0-2.3-0.1-3.5-0.1c-1.2,0-2.5,0.1-3.7,0.1v-0.8h0.4c1.9,0,2.5-1.3,2.5-3.4v-11.5
		c0-1.5-1.3-2.4-2.5-2.4h-0.4v-0.8c1,0,2.1,0.1,3.1,0.1c0.8,0,1.6-0.1,2.4-0.1L225.4,276.8z M233.7,264.5c-2,0-2.1,0.5-2.5,2.5h-0.8
		c0.1-0.8,0.2-1.5,0.3-2.3c0.1-0.8,0.2-1.5,0.2-2.3h0.7c0.2,0.8,0.9,0.8,1.6,0.8h14.1c0.7,0,1.4,0,1.5-0.8l0.7,0.1
		c-0.1,0.7-0.2,1.5-0.3,2.2c-0.1,0.7-0.1,1.5-0.1,2.2l-0.8,0.3c-0.1-1-0.2-2.6-2-2.6h-4.5V279c0,2.1,1,2.3,2.3,2.3h0.5v0.8
		c-1.1,0-3-0.1-4.4-0.1c-1.6,0-3.5,0.1-4.6,0.1v-0.8h0.5c1.5,0,2.3-0.1,2.3-2.3v-14.5H233.7z M250.2,281.3h0.4c1,0,2-0.1,2-1.5
		v-14.2c0-1.4-1-1.6-2-1.6h-0.4v-0.8c1.7,0,4.5,0.1,6.8,0.1c2.3,0,5.1-0.1,7-0.1c0,1.2,0,3,0.1,4.2l-0.8,0.2
		c-0.1-1.8-0.5-3.2-3.3-3.2h-3.8v7.1h3.2c1.6,0,2-0.9,2.2-2.4h0.8c-0.1,1.1-0.1,2.1-0.1,3.2c0,1,0,2.1,0.1,3.1l-0.8,0.2
		c-0.2-1.6-0.2-2.7-2.1-2.7h-3.3v6.3c0,1.8,1.6,1.8,3.3,1.8c3.3,0,4.7-0.2,5.5-3.3l0.8,0.2c-0.4,1.4-0.7,2.9-0.9,4.3
		c-1.7,0-4.9-0.1-7.3-0.1c-2.5,0-5.7,0.1-7.3,0.1V281.3z M269.4,266c0-2-1.1-2.1-1.9-2.1h-0.5v-0.8c0.9,0,2.6,0.1,4.2,0.1
		c1.6,0,2.9-0.1,4.4-0.1c3.4,0,6.5,0.9,6.5,4.8c0,2.4-1.6,3.9-3.8,4.8l4.7,7c0.8,1.2,1.3,1.5,2.6,1.6v0.8c-0.9,0-1.8-0.1-2.7-0.1
		c-0.8,0-1.7,0.1-2.6,0.1c-2.1-2.7-3.9-5.7-5.7-8.8h-1.8v5.8c0,2.1,1,2.2,2.2,2.2h0.5v0.8c-1.6,0-3.1-0.1-4.7-0.1
		c-1.3,0-2.6,0.1-4,0.1v-0.8h0.5c1,0,1.9-0.5,1.9-1.5V266z M272.8,272.4h1.3c2.7,0,4.2-1,4.2-4.2c0-2.4-1.6-4-4-4
		c-0.8,0-1.2,0.1-1.5,0.1V272.4z M304,276.8L304,276.8l0-10.3c0-2.2-1.6-2.6-2.4-2.6h-0.6v-0.8c1.3,0,2.5,0.1,3.8,0.1
		c1.1,0,2.2-0.1,3.4-0.1v0.8h-0.4c-1.1,0-2.4,0.2-2.4,3.5v12.4c0,1,0,1.9,0.2,2.7h-1l-14-15.6v11.2c0,2.4,0.5,3.2,2.6,3.2h0.5v0.8
		c-1.2,0-2.3-0.1-3.5-0.1c-1.2,0-2.5,0.1-3.7,0.1v-0.8h0.4c1.9,0,2.5-1.3,2.5-3.4v-11.5c0-1.5-1.3-2.4-2.5-2.4h-0.4v-0.8
		c1,0,2.1,0.1,3.1,0.1c0.8,0,1.6-0.1,2.4-0.1L304,276.8z M312.7,278.3c-0.3,0.9-0.6,1.6-0.6,2.1c0,0.8,1.1,0.9,2,0.9h0.3v0.8
		c-1.1-0.1-2.2-0.1-3.3-0.1c-1,0-2,0-2.9,0.1v-0.8h0.2c1.1,0,2-0.6,2.4-1.8l4.4-12.5c0.4-1,0.8-2.4,1-3.4c0.9-0.3,2-0.8,2.5-1.2
		c0.1,0,0.1-0.1,0.2-0.1c0.1,0,0.1,0,0.2,0.1c0.1,0.2,0.2,0.5,0.2,0.7l5,14.2c0.3,1,0.7,2,1,2.8c0.3,0.8,0.9,1.1,1.8,1.1h0.2v0.8
		c-1.2-0.1-2.5-0.1-3.8-0.1c-1.3,0-2.7,0-4.1,0.1v-0.8h0.3c0.6,0,1.7-0.1,1.7-0.8c0-0.4-0.2-1.1-0.6-2l-1.1-3.2h-6.2L312.7,278.3z
		 M316.7,266.2L316.7,266.2l-2.6,7.7h5.1L316.7,266.2z M328.4,264.5c-2,0-2.1,0.5-2.5,2.5H325c0.1-0.8,0.2-1.5,0.3-2.3
		c0.1-0.8,0.2-1.5,0.2-2.3h0.7c0.2,0.8,0.9,0.8,1.6,0.8h14.1c0.7,0,1.4,0,1.5-0.8l0.7,0.1c-0.1,0.7-0.2,1.5-0.3,2.2
		c-0.1,0.7-0.1,1.5-0.1,2.2l-0.8,0.3c-0.1-1-0.2-2.6-2-2.6h-4.5V279c0,2.1,1,2.3,2.3,2.3h0.5v0.8c-1.1,0-3-0.1-4.4-0.1
		c-1.6,0-3.5,0.1-4.6,0.1v-0.8h0.5c1.5,0,2.3-0.1,2.3-2.3v-14.5H328.4z M345,281.3h0.4c1,0,2-0.1,2-1.5v-14.2c0-1.4-1-1.6-2-1.6H345
		v-0.8c1.1,0,2.7,0.1,4,0.1c1.4,0,3-0.1,4.3-0.1v0.8h-0.4c-1,0-2,0.1-2,1.6v14.2c0,1.4,1,1.5,2,1.5h0.4v0.8c-1.3,0-2.9-0.1-4.3-0.1
		c-1.3,0-2.9,0.1-4,0.1V281.3z M364.2,262.8c5.8,0,10.4,3.6,10.4,9.4c0,6.3-4.5,10.4-10.3,10.4c-5.8,0-10.2-3.9-10.2-9.8
		C354.1,267.1,358.5,262.8,364.2,262.8z M364.6,281.4c5.3,0,6.2-4.7,6.2-8.6c0-4-2.1-8.8-6.7-8.8c-4.8,0-6.2,4.2-6.2,7.9
		C358,276.7,360.2,281.4,364.6,281.4z M393,276.8L393,276.8l0.1-10.3c0-2.2-1.6-2.6-2.4-2.6h-0.6v-0.8c1.3,0,2.5,0.1,3.8,0.1
		c1.1,0,2.2-0.1,3.4-0.1v0.8h-0.4c-1.1,0-2.4,0.2-2.4,3.5v12.4c0,1,0,1.9,0.2,2.7h-1l-14-15.6v11.2c0,2.4,0.5,3.2,2.6,3.2h0.5v0.8
		c-1.2,0-2.3-0.1-3.5-0.1c-1.2,0-2.5,0.1-3.7,0.1v-0.8h0.4c1.9,0,2.4-1.3,2.4-3.4v-11.5c0-1.5-1.2-2.4-2.5-2.4h-0.4v-0.8
		c1,0,2.1,0.1,3.1,0.1c0.8,0,1.6-0.1,2.4-0.1L393,276.8z M401.6,278.3c-0.3,0.9-0.6,1.6-0.6,2.1c0,0.8,1.1,0.9,2,0.9h0.3v0.8
		c-1.1-0.1-2.2-0.1-3.3-0.1c-1,0-2,0-2.9,0.1v-0.8h0.2c1.1,0,2-0.6,2.4-1.8l4.4-12.5c0.4-1,0.8-2.4,1-3.4c0.9-0.3,2-0.8,2.5-1.2
		c0.1,0,0.1-0.1,0.2-0.1c0.1,0,0.1,0,0.2,0.1c0.1,0.2,0.2,0.5,0.2,0.7l5,14.2c0.3,1,0.7,2,1,2.8c0.3,0.8,0.9,1.1,1.8,1.1h0.2v0.8
		c-1.2-0.1-2.5-0.1-3.8-0.1c-1.3,0-2.7,0-4.1,0.1v-0.8h0.3c0.6,0,1.7-0.1,1.7-0.8c0-0.4-0.2-1.1-0.6-2l-1.1-3.2h-6.2L401.6,278.3z
		 M405.6,266.2L405.6,266.2l-2.6,7.7h5.1L405.6,266.2z M423,279.5c0,1.1,0.8,1.4,1.6,1.5c1.1,0.1,2.3,0.1,3.6-0.1
		c1.1-0.1,2.1-0.8,2.6-1.5c0.4-0.6,0.7-1.4,0.8-2h0.8c-0.3,1.5-0.7,3.1-1,4.6c-2.4,0-4.8-0.1-7.2-0.1c-2.4,0-4.8,0.1-7.2,0.1v-0.8
		h0.4c1,0,2.1-0.1,2.1-1.8v-14c0-1.4-1.1-1.6-2.1-1.6h-0.4v-0.8c1.4,0,2.9,0.1,4.3,0.1c1.4,0,2.8-0.1,4.1-0.1v0.8h-0.7
		c-1,0-1.8,0-1.8,1.5V279.5z"/>
</g>
</svg>
