<?xml version="1.0" encoding="utf-8"?>
<!-- Generator: Adobe Illustrator 19.0.0, SVG Export Plug-In . SVG Version: 6.00 Build 0)  -->
<svg version="1.1" id="Layer_1" xmlns="http://www.w3.org/2000/svg" xmlns:xlink="http://www.w3.org/1999/xlink" x="0px" y="0px"
	 viewBox="0 0 500 500" style="enable-background:new 0 0 500 500;" xml:space="preserve">
<style type="text/css">
	.st0{fill:#FFFFFF;}
	.st1{fill:url(#SVGID_1_);}
	.st2{fill:url(#SVGID_2_);}
	.st3{fill:url(#SVGID_3_);}
	.st4{fill:url(#SVGID_4_);}
	.st5{fill:url(#SVGID_5_);}
</style>
<g>
	<path class="st0" d="M432.5,333.9c0,31.2-25.4,56.7-56.7,56.7H67.5V166.1c0-31.2,25.4-56.7,56.7-56.7h308.3V333.9z"/>
	
		<linearGradient id="SVGID_1_" gradientUnits="userSpaceOnUse" x1="0.2655" y1="0.1227" x2="1.6913" y2="0.1227" gradientTransform="matrix(70.3176 0 0 43.5515 293.5387 260.2754)">
		<stop  offset="0" style="stop-color:#007940"/>
		<stop  offset="0.2285" style="stop-color:#00873F"/>
		<stop  offset="0.7433" style="stop-color:#40A737"/>
		<stop  offset="1" style="stop-color:#5CB531"/>
	</linearGradient>
	<path class="st1" d="M332.1,276.3h23.4c0.7,0,2.2-0.2,2.9-0.2c4.5-0.9,8.3-4.9,8.3-10.5c0-5.4-3.8-9.4-8.3-10.5
		c-0.7-0.2-2-0.2-2.9-0.2h-23.4V276.3z"/>
	
		<linearGradient id="SVGID_2_" gradientUnits="userSpaceOnUse" x1="0.2611" y1="4.068078e-003" x2="1.6868" y2="4.068078e-003" gradientTransform="matrix(70.2592 0 0 170.7188 293.8635 249.4171)">
		<stop  offset="0" style="stop-color:#007940"/>
		<stop  offset="0.2285" style="stop-color:#00873F"/>
		<stop  offset="0.7433" style="stop-color:#40A737"/>
		<stop  offset="1" style="stop-color:#5CB531"/>
	</linearGradient>
	<path class="st2" d="M352.9,128.4c-22.3,0-40.6,18.1-40.6,40.6v42.2h57.3c1.3,0,2.9,0,4,0.2c12.9,0.7,22.5,7.4,22.5,19
		c0,9.1-6.5,17-18.5,18.5v0.4c13.2,0.9,23.2,8.3,23.2,19.6c0,12.3-11.2,20.3-25.9,20.3H312v82.5h59.6c22.3,0,40.6-18.1,40.6-40.6
		V128.4H352.9z"/>
	
		<linearGradient id="SVGID_3_" gradientUnits="userSpaceOnUse" x1="0.2664" y1="-0.1003" x2="1.6921" y2="-0.1003" gradientTransform="matrix(70.3204 0 0 43.5788 293.4765 237.4153)">
		<stop  offset="0" style="stop-color:#007940"/>
		<stop  offset="0.2285" style="stop-color:#00873F"/>
		<stop  offset="0.7433" style="stop-color:#40A737"/>
		<stop  offset="1" style="stop-color:#5CB531"/>
	</linearGradient>
	<path class="st3" d="M363.8,233c0-5.4-3.8-8.9-8.3-9.6c-0.4,0-1.6-0.2-2.2-0.2h-21.2v19.6h21.2c0.7,0,2,0,2.2-0.2
		C360,242,363.8,238.4,363.8,233z"/>
	
		<linearGradient id="SVGID_4_" gradientUnits="userSpaceOnUse" x1="-0.6764" y1="4.403162e-003" x2="0.7494" y2="4.403162e-003" gradientTransform="matrix(71.4062 0 0 173.3469 136.0518 249.2367)">
		<stop  offset="0" style="stop-color:#1F286F"/>
		<stop  offset="0.4751" style="stop-color:#004E94"/>
		<stop  offset="0.8261" style="stop-color:#0066B1"/>
		<stop  offset="1" style="stop-color:#006FBC"/>
	</linearGradient>
	<path class="st4" d="M128.4,128.4c-22.3,0-40.6,18.1-40.6,40.6v100.2c11.4,5.6,23.2,9.1,35,9.1c14.1,0,21.6-8.5,21.6-20.1V211h34.8
		V258c0,18.3-11.4,33.2-50,33.2c-23.4,0-41.7-5.1-41.7-5.1v85.4h59.6c22.3,0,40.6-18.1,40.6-40.6V128.4H128.4z"/>
	
		<linearGradient id="SVGID_5_" gradientUnits="userSpaceOnUse" x1="-0.2162" y1="4.609620e-003" x2="1.2096" y2="4.609620e-003" gradientTransform="matrix(69.352 0 0 168.669 214.4437 249.4456)">
		<stop  offset="0" style="stop-color:#6C2C2F"/>
		<stop  offset="0.1735" style="stop-color:#882730"/>
		<stop  offset="0.5731" style="stop-color:#BE1833"/>
		<stop  offset="0.8585" style="stop-color:#DC0436"/>
		<stop  offset="1" style="stop-color:#E60039"/>
	</linearGradient>
	<path class="st5" d="M240.6,128.4c-22.3,0-40.6,18.1-40.6,40.6v53.1c10.3-8.7,28.1-14.3,56.9-12.9c15.4,0.7,31.9,4.9,31.9,4.9v17.2
		c-8.3-4.2-18.1-8-30.8-8.9c-21.9-1.6-35,9.1-35,27.9c0,19,13.2,29.7,35,27.9c12.7-0.9,22.5-4.9,30.8-8.9v17.2
		c0,0-16.3,4.2-31.9,4.9c-28.8,1.3-46.6-4.2-56.9-12.9V372h59.6c22.3,0,40.6-18.1,40.6-40.6v-203H240.6z"/>
</g>
</svg>
