<?xml version="1.0" encoding="utf-8"?>
<!-- Generator: Adobe Illustrator 24.1.1, SVG Export Plug-In . SVG Version: 6.00 Build 0)  -->
<svg version="1.1" id="Layer_1" xmlns="http://www.w3.org/2000/svg" xmlns:xlink="http://www.w3.org/1999/xlink" x="0px" y="0px"
	 viewBox="0 0 512 512" style="enable-background:new 0 0 512 512;" xml:space="preserve">
<style type="text/css">
	.st0{fill:#FF5F00;}
	.st1{fill:#EB001B;}
	.st2{fill:#F79E1B;}
</style>
<g>
	<path d="M93.2,453.8v-26.4c0-10.1-6.2-16.7-16.7-16.7c-5.3,0-11,1.8-14.9,7.5c-3.1-4.8-7.5-7.5-14.1-7.5c-4.4,0-8.8,1.3-12.3,6.2
		v-5.3h-9.2v42.2h9.2v-23.3c0-7.5,4-11,10.1-11s9.2,4,9.2,11v23.3h9.2v-23.3c0-7.5,4.4-11,10.1-11c6.2,0,9.2,4,9.2,11v23.3H93.2z
		 M229.9,411.6h-14.9v-12.7h-9.2v12.7h-8.4v8.4h8.4v19.3c0,9.7,4,15.4,14.5,15.4c4,0,8.4-1.3,11.4-3.1l-2.6-7.9
		c-2.6,1.8-5.7,2.2-7.9,2.2c-4.4,0-6.2-2.6-6.2-7v-18.9h14.9V411.6z M308.1,410.7c-5.3,0-8.8,2.6-11,6.2v-5.3h-9.2v42.2h9.2V430
		c0-7,3.1-11,8.8-11c1.8,0,4,0.4,5.7,0.9l2.6-8.8C312.5,410.7,309.8,410.7,308.1,410.7z M189.9,415.1c-4.4-3.1-10.5-4.4-17.1-4.4
		c-10.5,0-17.6,5.3-17.6,13.6c0,7,5.3,11,14.5,12.3l4.4,0.4c4.8,0.9,7.5,2.2,7.5,4.4c0,3.1-3.5,5.3-9.7,5.3c-6.2,0-11-2.2-14.1-4.4
		l-4.4,7c4.8,3.5,11.4,5.3,18,5.3c12.3,0,19.3-5.7,19.3-13.6c0-7.5-5.7-11.4-14.5-12.7l-4.4-0.4c-4-0.4-7-1.3-7-4
		c0-3.1,3.1-4.8,7.9-4.8c5.3,0,10.5,2.2,13.2,3.5L189.9,415.1z M435.1,410.7c-5.3,0-8.8,2.6-11,6.2v-5.3h-9.2v42.2h9.2V430
		c0-7,3.1-11,8.8-11c1.8,0,4,0.4,5.7,0.9l2.6-8.8C439.5,410.7,436.8,410.7,435.1,410.7z M317.3,432.7c0,12.7,8.8,22,22.4,22
		c6.2,0,10.5-1.3,14.9-4.8l-4.4-7.5c-3.5,2.6-7,4-11,4c-7.5,0-12.7-5.3-12.7-13.6c0-7.9,5.3-13.2,12.7-13.6c4,0,7.5,1.3,11,4
		l4.4-7.5c-4.4-3.5-8.8-4.8-14.9-4.8C326.1,410.7,317.3,419.9,317.3,432.7z M402.6,432.7v-21.1h-9.2v5.3c-3.1-4-7.5-6.2-13.2-6.2
		c-11.9,0-21.1,9.2-21.1,22s9.2,22,21.1,22c6.2,0,10.5-2.2,13.2-6.2v5.3h9.2V432.7z M368.7,432.7c0-7.5,4.8-13.6,12.7-13.6
		c7.5,0,12.7,5.7,12.7,13.6c0,7.5-5.3,13.6-12.7,13.6C373.6,445.9,368.7,440.1,368.7,432.7z M258.4,410.7c-12.3,0-21.1,8.8-21.1,22
		c0,13.2,8.8,22,21.5,22c6.2,0,12.3-1.8,17.1-5.7l-4.4-6.6c-3.5,2.6-7.9,4.4-12.3,4.4c-5.7,0-11.4-2.6-12.7-10.1h31.2v-3.5
		C278.2,419.5,270.3,410.7,258.4,410.7z M258.4,418.6c5.7,0,9.7,3.5,10.5,10.1h-22C247.9,423,251.8,418.6,258.4,418.6z M487.4,432.7
		v-37.8h-9.2v22c-3.1-4-7.5-6.2-13.2-6.2c-11.9,0-21.1,9.2-21.1,22s9.2,22,21.1,22c6.2,0,10.5-2.2,13.2-6.2v5.3h9.2V432.7z
		 M453.5,432.7c0-7.5,4.8-13.6,12.7-13.6c7.5,0,12.7,5.7,12.7,13.6c0,7.5-5.3,13.6-12.7,13.6C458.4,445.9,453.5,440.1,453.5,432.7z
		 M145,432.7v-21.1h-9.2v5.3c-3.1-4-7.5-6.2-13.2-6.2c-11.9,0-21.1,9.2-21.1,22s9.2,22,21.1,22c6.2,0,10.5-2.2,13.2-6.2v5.3h9.2
		V432.7z M110.8,432.7c0-7.5,4.8-13.6,12.7-13.6c7.5,0,12.7,5.7,12.7,13.6c0,7.5-5.3,13.6-12.7,13.6
		C115.6,445.9,110.8,440.1,110.8,432.7z"/>
	<rect x="186.8" y="91.2" class="st0" width="138.4" height="248.7"/>
	<path class="st1" d="M195.6,215.6c0-50.5,23.7-95.4,60.2-124.4c-26.8-21.1-60.6-33.8-97.6-33.8C70.8,57.4,0,128.1,0,215.6
		s70.8,158.2,158.2,158.2c36.9,0,70.8-12.7,97.6-33.8C219.3,311.4,195.6,266.1,195.6,215.6z"/>
	<path class="st2" d="M512,215.6c0,87.5-70.8,158.2-158.2,158.2c-36.9,0-70.8-12.7-97.6-33.8c36.9-29,60.2-73.8,60.2-124.4
		s-23.7-95.4-60.2-124.4c26.8-21.1,60.6-33.8,97.6-33.8C441.2,57.4,512,128.5,512,215.6z"/>
</g>
</svg>
