<svg width="150" height="130" xmlns="http://www.w3.org/2000/svg">
 <!-- Created with Method Draw - http://github.com/duopixel/Method-Draw/ -->
 <g id="Layer_1">
  <title>Layer 1</title>
  <g id="Layer_2">
   <g id="svg_8">
    <rect fill="none" y="2.24308" x="0" id="svg_1" height="120.41" width="146.8" class="cls-1"/>
    <path fill="#231f20" id="svg_2" d="m36.35,107.50308l0,-6a3.56,3.56 0 0 0 -3.76,-3.8a3.7,3.7 0 0 0 -3.36,1.7a3.51,3.51 0 0 0 -3.16,-1.7a3.16,3.16 0 0 0 -2.8,1.42l0,-1.18l-2.08,0l0,9.56l2.1,0l0,-5.26a2.24,2.24 0 0 1 2.34,-2.54c1.38,0 2.08,0.9 2.08,2.52l0,5.32l2.1,0l0,-5.3a2.25,2.25 0 0 1 2.34,-2.54c1.42,0 2.1,0.9 2.1,2.52l0,5.32l2.1,-0.04zm31.07,-9.56l-3.42,0l0,-2.9l-2.1,0l0,2.9l-1.9,0l0,1.9l1.94,0l0,4.4c0,2.22 0.86,3.54 3.32,3.54a4.88,4.88 0 0 0 2.6,-0.74l-0.6,-1.78a3.84,3.84 0 0 1 -1.84,0.54c-1,0 -1.38,-0.64 -1.38,-1.6l0,-4.36l3.4,0l-0.02,-1.9zm17.74,-0.24a2.82,2.82 0 0 0 -2.52,1.4l0,-1.16l-2.06,0l0,9.56l2.08,0l0,-5.36c0,-1.58 0.68,-2.46 2,-2.46a3.39,3.39 0 0 1 1.3,0.24l0.64,-2a4.45,4.45 0 0 0 -1.48,-0.26l0.04,0.04zm-26.82,1a7.15,7.15 0 0 0 -3.9,-1c-2.42,0 -4,1.16 -4,3.06c0,1.56 1.16,2.52 3.3,2.82l1,0.14c1.14,0.16 1.68,0.46 1.68,1c0,0.74 -0.76,1.16 -2.18,1.16a5.09,5.09 0 0 1 -3.18,-1l-1,1.62a6.9,6.9 0 0 0 4.14,1.24c2.76,0 4.36,-1.3 4.36,-3.12c0,-1.82 -1.26,-2.56 -3.34,-2.86l-1,-0.14c-0.9,-0.12 -1.62,-0.3 -1.62,-0.94c0,-0.64 0.68,-1.12 1.82,-1.12a6.16,6.16 0 0 1 3,0.82l0.92,-1.68zm55.71,-1a2.82,2.82 0 0 0 -2.52,1.4l0,-1.16l-2.06,0l0,9.56l2.08,0l0,-5.36c0,-1.58 0.68,-2.46 2,-2.46a3.39,3.39 0 0 1 1.3,0.24l0.64,-2a4.45,4.45 0 0 0 -1.48,-0.26l0.04,0.04zm-26.8,5a4.83,4.83 0 0 0 5.1,5a5,5 0 0 0 3.44,-1.14l-1,-1.68a4.2,4.2 0 0 1 -2.5,0.86a3.07,3.07 0 0 1 0,-6.12a4.2,4.2 0 0 1 2.5,0.86l1,-1.68a5,5 0 0 0 -3.44,-1.14a4.83,4.83 0 0 0 -5.1,5l0,0.04zm19.48,0l0,-4.76l-2.08,0l0,1.16a3.63,3.63 0 0 0 -3,-1.4a5,5 0 0 0 0,10a3.63,3.63 0 0 0 3,-1.4l0,1.16l2.08,0l0,-4.76zm-7.74,0a2.89,2.89 0 1 1 2.9,3.06a2.87,2.87 0 0 1 -2.9,-3.06zm-25.1,-5a5.00049,5.00049 0 0 0 0.14,10a5.81,5.81 0 0 0 3.97,-1.3l-1,-1.54a4.55,4.55 0 0 1 -2.78,1a2.65,2.65 0 0 1 -2.86,-2.34l7.1,0c0,-0.26 0,-0.52 0,-0.8c0,-3 -1.86,-5 -4.54,-5l-0.03,-0.02zm0,1.86a2.37,2.37 0 0 1 2.42,2.32l-5,0a2.46,2.46 0 0 1 2.54,-2.32l0.04,0zm52.11,3.16l0,-8.62l-2,0l0,5a3.63,3.63 0 0 0 -3,-1.4a5,5 0 0 0 0,10a3.63,3.63 0 0 0 3,-1.4l0,1.16l2,0l0,-4.74zm3.47,3.39a1,1 0 0 1 0.38,0.07a1,1 0 0 1 0.31,0.2a1,1 0 0 1 0.21,0.3a0.93,0.93 0 0 1 0,0.74a1,1 0 0 1 -0.21,0.3a1,1 0 0 1 -0.31,0.2a0.94,0.94 0 0 1 -0.38,0.08a1,1 0 0 1 -0.9,-0.58a0.94,0.94 0 0 1 0,-0.74a1,1 0 0 1 0.21,-0.3a1,1 0 0 1 0.31,-0.2a1,1 0 0 1 0.41,-0.07l-0.03,0zm0,1.69a0.71,0.71 0 0 0 0.29,-0.06a0.75,0.75 0 0 0 0.23,-0.16a0.74,0.74 0 0 0 0,-1a0.74,0.74 0 0 0 -0.23,-0.16a0.72,0.72 0 0 0 -0.29,-0.06a0.75,0.75 0 0 0 -0.29,0.06a0.73,0.73 0 0 0 -0.24,0.16a0.74,0.74 0 0 0 0,1a0.74,0.74 0 0 0 0.24,0.16a0.74,0.74 0 0 0 0.32,0.06l-0.03,0zm0.06,-1.19a0.4,0.4 0 0 1 0.26,0.08a0.25,0.25 0 0 1 0.09,0.21a0.24,0.24 0 0 1 -0.07,0.18a0.35,0.35 0 0 1 -0.21,0.09l0.29,0.33l-0.23,0l-0.27,-0.33l-0.09,0l0,0.33l-0.19,0l0,-0.88l0.42,-0.01zm-0.22,0.17l0,0.24l0.22,0a0.21,0.21 0 0 0 0.12,0a0.1,0.1 0 0 0 0,-0.09a0.1,0.1 0 0 0 0,-0.09a0.21,0.21 0 0 0 -0.12,0l-0.22,-0.06zm-11,-4.06a2.89,2.89 0 1 1 2.9,3.06a2.87,2.87 0 0 1 -2.9,-3.06zm-70.23,0l0,-4.78l-2.08,0l0,1.16a3.63,3.63 0 0 0 -3,-1.4a5,5 0 0 0 0,10a3.63,3.63 0 0 0 3,-1.4l0,1.16l2.08,0l0,-4.74zm-7.74,0a2.89,2.89 0 1 1 2.9,3.06a2.87,2.87 0 0 1 -2.92,-3.06l0.02,0z" class="cls-2"/>
    <g id="svg_7">
     <rect fill="#ff5f00" id="svg_3" height="56.61" width="31.5" y="25.09308" x="57.65" class="cls-3"/>
     <path fill="#eb001b" d="m59.65,53.40308a35.94,35.94 0 0 1 13.75,-28.31a36,36 0 1 0 0,56.61a35.94,35.94 0 0 1 -13.75,-28.3z" class="cls-4" id="svg_4"/>
     <path fill="#f79e1b" id="svg_5" d="m131.65,53.40308a36,36 0 0 1 -58.25,28.3a36,36 0 0 0 0,-56.61a36,36 0 0 1 58.25,28.3l0,0.01z" class="cls-5"/>
     <path fill="#f79e1b" id="svg_6" d="m128.21,75.70308l0,-1.16l0.47,0l0,-0.24l-1.19,0l0,0.24l0.51,0l0,1.16l0.21,0zm2.31,0l0,-1.4l-0.36,0l-0.42,1l-0.42,-1l-0.32,0l0,1.4l0.26,0l0,-1.05l0.39,0.91l0.27,0l0.39,-0.91l0,1.06l0.21,-0.01z" class="cls-5"/>
    </g>
   </g>
  </g>
 </g>
</svg>